<?xml version="1.0" standalone="no"?>
<!DOCTYPE svg PUBLIC "-//W3C//DTD SVG 20010904//EN"
 "http://www.w3.org/TR/2001/REC-SVG-20010904/DTD/svg10.dtd">
<svg version="1.0" xmlns="http://www.w3.org/2000/svg"
 width="386.000000pt" height="105.000000pt" viewBox="0 0 386.000000 105.000000"
 preserveAspectRatio="xMidYMid meet">

<g transform="translate(0.000000,105.000000) scale(0.100000,-0.100000)"
fill="#000000" stroke="none">
<path d="M20 635 l0 -405 790 0 790 0 0 405 0 405 -790 0 -790 0 0 -405z m733
101 c102 -249 97 -226 43 -226 -35 0 -48 5 -56 20 -9 17 -21 20 -74 20 -55 0
-64 -3 -69 -20 -4 -16 -14 -20 -51 -20 -25 0 -46 2 -46 6 0 4 100 252 157 392
3 6 9 12 13 12 4 0 41 -83 83 -184z m-273 129 l0 -45 -50 0 -50 0 0 -155 0
-155 -45 0 -45 0 0 155 0 155 -45 0 -45 0 0 45 0 45 140 0 140 0 0 -45z m602
33 c11 -9 15 -23 11 -46 -6 -34 -6 -34 -50 -27 -49 7 -73 -5 -73 -36 0 -13 17
-28 57 -47 70 -33 107 -81 100 -129 -8 -49 -35 -80 -82 -99 -39 -15 -51 -15
-102 -3 l-58 14 -3 48 c-2 26 -1 47 1 47 3 0 21 -7 40 -15 46 -19 91 -19 107
0 20 24 5 43 -56 72 -59 28 -94 69 -94 111 0 37 30 91 59 107 32 18 122 19
143 3z m188 -65 l0 -78 48 77 47 78 48 0 c26 0 47 -2 47 -5 0 -3 -27 -47 -61
-100 -38 -59 -58 -99 -53 -107 5 -7 34 -50 66 -95 32 -45 58 -84 58 -87 0 -3
-22 -6 -50 -6 l-50 0 -47 72 -48 71 -3 -71 -3 -72 -39 0 -40 0 0 200 0 200 40
0 40 0 0 -77z"/>
<path d="M656 686 c-3 -13 -9 -31 -12 -40 -5 -13 1 -16 26 -16 25 0 31 3 26
16 -3 9 -9 27 -12 40 -3 13 -10 24 -14 24 -4 0 -11 -11 -14 -24z"/>
<path d="M1610 635 l0 -405 1110 0 1110 0 0 405 0 405 -1110 0 -1110 0 0 -405z
m2208 3 l-3 -393 -1095 0 -1095 0 -3 393 -2 392 1100 0 1100 0 -2 -392z"/>
<path d="M2347 898 c-68 -167 -157 -388 -157 -392 0 -4 17 -6 38 -6 32 0 41 5
50 25 11 23 17 25 75 25 58 0 65 -2 75 -25 10 -21 19 -25 52 -25 l40 0 -19 48
c-101 252 -149 362 -154 350z m39 -262 c6 -24 4 -26 -28 -26 -45 0 -49 5 -34
43 7 18 17 41 21 52 7 18 9 17 21 -11 7 -17 16 -43 20 -58z"/>
<path d="M1770 700 l0 -200 35 0 35 0 0 110 c0 61 2 110 5 110 2 0 25 -23 51
-50 l48 -51 53 53 53 52 0 -112 0 -112 35 0 35 0 0 200 c0 110 -4 200 -8 200
-4 0 -41 -37 -82 -82 -40 -46 -76 -84 -80 -86 -4 -2 -43 36 -85 83 -43 47 -82
85 -87 85 -4 0 -8 -90 -8 -200z"/>
<path d="M2655 893 c-33 -8 -74 -54 -81 -91 -11 -56 15 -95 83 -127 81 -38 93
-61 48 -91 -25 -16 -60 -13 -117 11 -15 6 -18 1 -18 -33 0 -39 2 -42 38 -51
108 -31 192 13 192 100 0 48 -33 87 -99 118 -54 26 -66 42 -51 71 13 25 39 32
77 21 17 -5 34 -7 37 -3 9 8 7 60 -1 65 -14 8 -88 15 -108 10z"/>
<path d="M2840 855 l0 -35 50 0 50 0 0 -160 0 -160 35 0 35 0 0 160 0 160 50
0 50 0 0 35 0 35 -135 0 -135 0 0 -35z"/>
<path d="M3180 695 l0 -195 100 0 100 0 0 40 0 40 -65 0 -65 0 0 40 0 40 55 0
55 0 0 34 0 35 -52 3 -53 3 -3 43 -3 42 60 0 61 0 0 35 0 35 -95 0 -95 0 0
-195z"/>
<path d="M3460 695 l0 -195 35 0 35 0 0 75 c0 72 1 75 23 75 19 0 31 -15 63
-75 38 -73 40 -75 77 -75 20 0 37 3 37 6 0 4 -18 39 -40 79 l-40 73 35 35 c29
29 35 42 35 77 0 47 -13 77 -44 102 -17 14 -41 18 -118 18 l-98 0 0 -195z
m174 109 c35 -34 9 -71 -54 -76 l-45 -3 -3 48 -3 47 45 0 c27 0 51 -6 60 -16z"/>
<path d="M3431 176 c-10 -12 -6 -14 20 -13 37 2 52 -21 20 -30 -27 -7 -27 -19
-1 -26 23 -6 27 -35 5 -43 -8 -4 -22 -1 -30 6 -22 19 -41 7 -21 -13 42 -42
116 2 81 49 -9 13 -10 23 -2 35 23 36 -44 69 -72 35z"/>
<path d="M3568 173 c-24 -29 -29 -54 -18 -89 17 -50 81 -59 95 -13 14 44 -21
78 -59 57 -15 -8 -17 -6 -14 14 2 19 8 23 36 21 21 -1 32 3 29 10 -6 20 -52
19 -69 0z m51 -67 c15 -18 3 -46 -20 -46 -22 0 -34 22 -25 45 7 19 30 19 45 1z"/>
<path d="M3700 170 c-41 -41 -14 -130 39 -130 32 0 51 28 51 75 0 69 -47 98
-90 55z m64 -16 c9 -22 7 -67 -3 -82 -25 -41 -71 22 -52 71 12 30 45 37 55 11z"/>
</g>
</svg>
